<?xml version="1.0" encoding="UTF-8" standalone="no"?>
<svg width="164px" height="164px" viewBox="0 0 164 164" version="1.1" xmlns="http://www.w3.org/2000/svg" xmlns:xlink="http://www.w3.org/1999/xlink" xmlns:sketch="http://www.bohemiancoding.com/sketch/ns">
    <!-- Generator: Sketch 3.4.2 (15857) - http://www.bohemiancoding.com/sketch -->
    <title>Subscribe icon</title>
    <desc>Created with Sketch.</desc>
    <defs></defs>
    <g id="Welcome" stroke="none" stroke-width="1" fill="none" fill-rule="evenodd" sketch:type="MSPage">
        <g id="Subscribe-icon" sketch:type="MSArtboardGroup" stroke="#FFFFFF" stroke-width="5">
            <g id="Sketch-icon-+-Path-242-+-Path-242-Copy" sketch:type="MSLayerGroup" transform="translate(82.500000, 110.500000) rotate(-270.000000) translate(-82.500000, -110.500000) translate(55.000000, 76.000000)">
                <path d="M0.330932825,58.0785897 L0.330932825,10.8849868 L16.2848119,0.112533964 L54.9445152,34.4817882 L16.2848119,68.8510425 L0.330932825,58.0785897 Z M0.432014397,45.2248394 L16.2848117,50.3839805 L54.9218599,34.4817881 L16.2848117,18.5795959 L0.432014397,25.9502442 M16.284812,68.8510425 L16.284812,51.9183938 L16.284812,19.2235686 L16.284812,0.112533994" id="Sketch-icon" stroke-linecap="round" stroke-linejoin="round" sketch:type="MSShapeGroup"></path>
                <path d="M16.1170915,19.2092734 L0.0755299663,11.0457892" id="Path-242" sketch:type="MSShapeGroup"></path>
                <path d="M16.1170915,58.8611042 L0.0755299663,50.6976199" id="Path-242-Copy" sketch:type="MSShapeGroup" transform="translate(8.096311, 54.779362) scale(1, -1) translate(-8.096311, -54.779362) "></path>
            </g>
            <g id="Group" sketch:type="MSLayerGroup" transform="translate(2.000000, 5.000000)" stroke-linecap="round" stroke-linejoin="round">
                <g transform="translate(17.112299, 9.411765)" sketch:type="MSShapeGroup">
                    <path d="M103.133356,62.459893 L124.064171,62.459893 L124.064171,141.176471 L0,141.176471 L0,62.459893 L21.3268717,62.459893" id="Rectangle-48"></path>
                    <path d="M0.22423822,62.2356548 L62.317196,0.142697049 L124.410154,62.2356548" id="Rectangle-48"></path>
                    <path d="M0.554812834,140.128676 L33.3877024,118.088235" id="Path-244"></path>
                    <path d="M91,140.117313 L123.83289,118.076872" id="Path-244-Copy-2" transform="translate(107.500000, 129.500000) scale(-1, 1) translate(-107.500000, -129.500000) "></path>
                </g>
                <g id="Path-246-+-Path-247-+-Path-248" sketch:type="MSShapeGroup">
                    <path d="M35.2874324,35.3158415 L19.3026856,18.2231402" id="Path-246"></path>
                    <path d="M0.762032086,47.3579545 L16.1781417,52.8559492" id="Path-247"></path>
                    <path d="M48.7550134,0.442847594 L55.6149733,16.1447193" id="Path-248"></path>
                </g>
                <g id="Path-246-+-Path-247-+-Path-248-Copy" transform="translate(132.000000, 26.500000) scale(-1, 1) translate(-132.000000, -26.500000) translate(104.000000, 0.000000)" sketch:type="MSShapeGroup">
                    <path d="M35.2874324,35.3158415 L19.3026856,18.2231402" id="Path-246"></path>
                    <path d="M0.762032086,47.3579545 L16.1781417,52.8559492" id="Path-247"></path>
                    <path d="M48.7550134,0.442847594 L55.6149733,16.1447193" id="Path-248"></path>
                </g>
            </g>
        </g>
    </g>
</svg>