<?xml version="1.0" encoding="UTF-8"?><!DOCTYPE svg PUBLIC "-//W3C//DTD SVG 1.1//EN" "http://www.w3.org/Graphics/SVG/1.1/DTD/svg11.dtd"><svg xmlns="http://www.w3.org/2000/svg" xmlns:xlink="http://www.w3.org/1999/xlink"><defs>
        <path id="a" d="M.665 69.59h232.28V.73H.665"/>
    
        <path id="a" d="M53.683 0h46.13c15.3 0 22.946 0 31.182 2.614 8.99 3.285 16.072 10.395 19.344 19.422 2.602 8.267 2.602 15.948 2.602 31.306v46.316c0 15.36 0 23.038-2.603 31.306-3.273 9.027-10.354 16.137-19.345 19.42C122.76 153 115.112 153 99.815 153H53.682c-15.298 0-22.947 0-31.18-2.615C13.51 147.1 6.43 139.99 3.157 130.965.554 122.694.554 115.017.554 99.657V53.342c0-15.358 0-23.04 2.604-31.306C6.43 13.01 13.51 5.9 22.502 2.614 30.736 0 38.385 0 53.682 0"/>
        <linearGradient x1="50%" y1="21.017%" x2="50%" y2="82.834%" id="b">
            <stop stop-color="#FBDA61" offset="0%"/>
            <stop stop-color="#EE7300" stop-opacity=".878" offset="100%"/>
        </linearGradient>
        <path id="d" d="M53.683 0h46.13c15.3 0 22.946 0 31.182 2.614 8.99 3.285 16.072 10.395 19.344 19.422 2.602 8.267 2.602 15.948 2.602 31.306v46.316c0 15.36 0 23.038-2.603 31.306-3.273 9.027-10.354 16.137-19.345 19.42C122.76 153 115.112 153 99.815 153H53.682c-15.298 0-22.947 0-31.18-2.615C13.51 147.1 6.43 139.99 3.157 130.965.554 122.694.554 115.017.554 99.657V53.342c0-15.358 0-23.04 2.604-31.306C6.43 13.01 13.51 5.9 22.502 2.614 30.736 0 38.385 0 53.682 0"/>
        <path id="f" d="M.106 0H153.3v153H.106z"/>
    </defs><symbol id="svg-appstore" viewBox="0 0 240 80">
    <title>
        Appstore
    </title>
    
    <g fill="none" fill-rule="evenodd">
        <path d="M235.402 66.463c0 3.643-2.95 6.595-6.6 6.595H12.807c-3.648 0-6.608-2.952-6.608-6.595v-52.6c0-3.642 2.96-6.603 6.608-6.603H228.8c3.653 0 6.6 2.96 6.6 6.604l.002 52.6" fill="#FFF"/>
        <g transform="translate(4 5)">
            <mask id="b" fill="#fff">
                <use xlink:href="#a"/>
            </mask>
            <path d="M224.8 69.593H8.807c-4.488 0-8.142-3.646-8.142-8.132V8.867C.664 4.38 4.318.73 8.806.73H224.8c4.483 0 8.14 3.65 8.14 8.136V61.46c.005 4.487-3.65 8.133-8.14 8.133" fill="#FFF" mask="url(#b)"/>
        </g>
        <path d="M235.402 66.463c0 3.643-2.95 6.595-6.6 6.595H12.807c-3.648 0-6.608-2.952-6.608-6.595v-52.6c0-3.642 2.96-6.603 6.608-6.603H228.8c3.653 0 6.6 2.96 6.6 6.604l.002 52.6" fill="#000"/>
        <path d="M56.53 39.798c-.05-5.552 4.544-8.252 4.754-8.376-2.602-3.796-6.633-4.313-8.05-4.354-3.386-.356-6.672 2.027-8.396 2.027-1.76 0-4.416-1.993-7.277-1.936-3.684.056-7.132 2.19-9.022 5.506-3.9 6.753-.99 16.683 2.746 22.14 1.87 2.678 4.055 5.663 6.914 5.56 2.8-.117 3.844-1.784 7.22-1.784 3.343 0 4.324 1.784 7.242 1.714 3-.047 4.89-2.687 6.696-5.387 2.16-3.06 3.027-6.082 3.06-6.24-.066-.02-5.825-2.22-5.886-8.872" fill="#FFF"/>
        <path d="M51.022 23.476c1.504-1.883 2.534-4.443 2.247-7.04-2.178.095-4.902 1.506-6.47 3.347-1.387 1.62-2.625 4.28-2.308 6.78 2.448.183 4.96-1.236 6.53-3.087" fill="#FFF"/>
        <g fill="#FFF">
            <path d="M90.353 50.425l-1.937-5.984c-.203-.61-.59-2.052-1.155-4.316h-.068c-.228.973-.59 2.41-1.087 4.317L84.2 50.426h6.153zm6.697 9.553h-3.91L91 53.248h-7.444l-2.04 6.73H77.71l7.375-22.917h4.555l7.41 22.918z"/>
            <path d="M112.244 51.65c0-1.608-.36-2.934-1.088-3.98-.794-1.087-1.86-1.63-3.197-1.63-.904 0-1.727.303-2.463.9-.737.603-1.217 1.388-1.444 2.364-.113.456-.17.823-.17 1.116v2.76c0 1.197.37 2.21 1.103 3.043.738.827 1.694 1.24 2.872 1.24 1.383 0 2.458-.535 3.23-1.598.77-1.062 1.156-2.47 1.156-4.215m3.74-.137c0 2.813-.763 5.034-2.29 6.664-1.368 1.45-3.066 2.175-5.093 2.175-2.187 0-3.76-.78-4.718-2.345v8.675h-3.67V48.888c0-1.765-.045-3.575-.136-5.432h3.23l.204 2.62h.07c1.223-1.976 3.08-2.962 5.573-2.962 1.95 0 3.576.77 4.877 2.313 1.3 1.544 1.953 3.57 1.953 6.086"/>
            <path d="M131.242 51.65c0-1.608-.365-2.934-1.087-3.98-.795-1.087-1.86-1.63-3.195-1.63-.906 0-1.728.303-2.466.9-.735.603-1.214 1.388-1.442 2.364-.113.456-.174.823-.174 1.116v2.76c0 1.197.37 2.21 1.106 3.043.74.824 1.692 1.24 2.873 1.24 1.385 0 2.46-.535 3.227-1.598.77-1.062 1.158-2.47 1.158-4.215m3.74-.137c0 2.813-.763 5.034-2.287 6.664-1.37 1.45-3.07 2.175-5.095 2.175-2.185 0-3.762-.78-4.717-2.345v8.675h-3.67V48.888c0-1.765-.047-3.575-.135-5.432h3.226l.206 2.62h.07c1.218-1.976 3.077-2.962 5.572-2.962 1.95 0 3.576.77 4.88 2.313 1.297 1.544 1.95 3.57 1.95 6.086"/>
            <path d="M156.226 53.553c0 1.95-.682 3.54-2.036 4.762-1.49 1.334-3.573 2.004-6.24 2.004-2.465 0-4.44-.477-5.934-1.43l.85-3.06c1.608.953 3.38 1.43 5.303 1.43 1.383 0 2.46-.31 3.228-.935.77-.62 1.156-1.455 1.156-2.5 0-.93-.32-1.71-.95-2.343-.636-.637-1.69-1.225-3.162-1.767-4.012-1.495-6.02-3.685-6.02-6.567 0-1.88.71-3.418 2.125-4.62 1.415-1.204 3.29-1.804 5.627-1.804 2.083 0 3.82.364 5.198 1.088l-.92 2.993c-1.3-.703-2.764-1.053-4.4-1.053-1.298 0-2.313.317-3.04.952-.61.565-.92 1.257-.92 2.077 0 .905.353 1.656 1.053 2.245.612.542 1.722 1.13 3.332 1.766 1.97.795 3.418 1.725 4.348 2.788.934 1.062 1.4 2.39 1.4 3.975"/>
            <path d="M168.393 46.21h-4.046v8.026c0 2.038.715 3.056 2.14 3.056.657 0 1.2-.056 1.632-.168l.1 2.787c-.723.27-1.675.407-2.855.407-1.447 0-2.583-.446-3.4-1.33-.814-.88-1.223-2.368-1.223-4.453v-8.332h-2.407v-2.75h2.407v-3.03l3.605-1.09v4.12h4.046v2.757z"/>
            <path d="M182.805 51.665c0-1.513-.33-2.81-.983-3.897-.77-1.31-1.873-1.97-3.3-1.97-1.47 0-2.598.66-3.364 1.97-.66 1.086-.986 2.408-.986 3.965 0 1.516.327 2.82.986 3.9.794 1.316 1.9 1.972 3.334 1.972 1.403 0 2.503-.672 3.302-2.004.672-1.11 1.01-2.418 1.01-3.935m3.804-.083c0 2.538-.724 4.622-2.176 6.255-1.516 1.68-3.533 2.515-6.047 2.515-2.428 0-4.357-.804-5.795-2.41-1.44-1.61-2.16-3.64-2.16-6.085 0-2.562.742-4.66 2.225-6.29 1.484-1.63 3.483-2.448 6-2.448 2.424 0 4.37.807 5.845 2.414 1.408 1.56 2.108 3.574 2.108 6.048"/>
            <path d="M198.544 46.683c-.364-.065-.75-.097-1.158-.097-1.29 0-2.287.48-2.99 1.46-.612.86-.916 1.95-.916 3.265v8.67h-3.67V48.657c0-1.9-.035-3.637-.108-5.2h3.196l.136 3.16h.103c.388-1.085 1-1.96 1.833-2.614.816-.594 1.702-.89 2.655-.89.338 0 .644.027.917.067l.002 3.503z"/>
            <path d="M211.46 49.984c.024-1.09-.216-2.03-.713-2.824-.635-1.023-1.616-1.532-2.923-1.532-1.2 0-2.176.497-2.924 1.497-.61.794-.97 1.75-1.083 2.857l7.642.002zm3.5.95c0 .66-.042 1.215-.134 1.666h-11.01c.038 1.632.575 2.882 1.598 3.744.925.77 2.125 1.154 3.6 1.154 1.63 0 3.118-.257 4.453-.78l.576 2.548c-1.563.68-3.408 1.02-5.537 1.02-2.564 0-4.572-.756-6.036-2.26-1.46-1.504-2.19-3.532-2.19-6.064 0-2.492.675-4.57 2.038-6.222 1.43-1.77 3.353-2.653 5.777-2.653 2.382 0 4.184.883 5.406 2.653.973 1.397 1.46 3.135 1.46 5.194z"/>
            <path d="M87.202 23.008c0-1.313-.347-2.32-1.042-3.017-.696-.7-1.712-1.05-3.05-1.05-.568 0-1.05.038-1.453.116v8.403c.223.035.63.05 1.22.05 1.38 0 2.446-.385 3.197-1.152.75-.765 1.128-1.887 1.128-3.35m1.904-.053c0 2.023-.608 3.547-1.82 4.57-1.126.946-2.724 1.42-4.79 1.42-1.028 0-1.905-.047-2.64-.136V17.75c.957-.153 1.99-.23 3.107-.23 1.97 0 3.457.426 4.457 1.28 1.123.97 1.686 2.355 1.686 4.155"/>
            <path d="M96.803 24.777c0-.743-.162-1.382-.482-1.916-.38-.642-.918-.962-1.618-.962-.724 0-1.278.32-1.655.963-.324.535-.483 1.186-.483 1.95 0 .748.16 1.384.483 1.917.39.642.935.966 1.638.966.69 0 1.228-.328 1.616-.98.338-.548.503-1.192.503-1.936m1.873-.042c0 1.248-.357 2.27-1.072 3.072-.747.827-1.735 1.238-2.97 1.238-1.192 0-2.14-.396-2.85-1.187-.705-.79-1.057-1.787-1.057-2.99 0-1.258.362-2.29 1.094-3.09.73-.8 1.71-1.2 2.946-1.2 1.193 0 2.15.394 2.874 1.183.69.768 1.036 1.76 1.036 2.975"/>
            <path d="M111.682 20.742l-2.54 8.118h-1.65l-1.053-3.526c-.27-.88-.484-1.753-.653-2.62h-.034c-.156.892-.372 1.764-.653 2.62l-1.117 3.526h-1.67l-2.39-8.118h1.856l.915 3.86c.224.912.406 1.782.552 2.605h.033c.134-.68.356-1.543.67-2.588l1.15-3.876h1.47l1.105 3.79c.268.927.482 1.817.65 2.675h.05c.122-.836.307-1.728.55-2.675l.985-3.79h1.772v-.003z"/>
            <path d="M120.534 28.86h-1.808V24.2c0-1.44-.54-2.156-1.634-2.156-.536 0-.965.198-1.302.593-.336.395-.5.86-.5 1.395v4.827h-1.805v-5.797c0-.716-.022-1.487-.065-2.325h1.585l.084 1.253h.05c.21-.387.523-.71.934-.964.49-.302 1.035-.453 1.634-.453.76 0 1.39.246 1.89.737.623.6.936 1.497.936 2.688v4.863z"/>
            <path d="M124.97 28.862h-1.802V17.02h1.802v11.842z"/>
            <path d="M133.208 24.777c0-.743-.164-1.382-.485-1.916-.38-.642-.918-.962-1.62-.962-.725 0-1.272.32-1.655.963-.322.535-.48 1.186-.48 1.95 0 .748.158 1.384.48 1.917.393.642.935.966 1.638.966.69 0 1.23-.328 1.618-.98.336-.548.504-1.192.504-1.936m1.87-.042c0 1.248-.357 2.27-1.07 3.072-.75.827-1.736 1.238-2.972 1.238-1.19 0-2.14-.396-2.85-1.187-.705-.79-1.06-1.787-1.06-2.99 0-1.258.364-2.29 1.095-3.09.73-.8 1.71-1.2 2.95-1.2 1.19 0 2.146.394 2.87 1.183.69.768 1.037 1.76 1.037 2.975"/>
            <path d="M141.438 26.07v-1.253c-1.993-.034-2.99.512-2.99 1.64 0 .422.12.737.35.95.234.212.527.316.878.316.4 0 .768-.123 1.107-.375.34-.25.546-.57.625-.96l.03-.317zm1.87 2.79h-1.62l-.13-.936h-.052c-.557.746-1.347 1.12-2.37 1.12-.77 0-1.386-.246-1.855-.734-.422-.445-.63-.998-.63-1.653 0-.992.414-1.748 1.243-2.272.826-.524 1.993-.78 3.498-.768v-.153c0-1.067-.56-1.602-1.686-1.602-.804 0-1.508.2-2.115.6l-.375-1.184c.758-.468 1.685-.7 2.792-.7 2.123 0 3.19 1.12 3.19 3.357v2.99c-.01.81.035 1.456.112 1.935z"/>
            <path d="M151.174 25.436v-1.353c0-.234-.016-.424-.048-.567-.102-.435-.32-.8-.658-1.096-.334-.294-.735-.442-1.204-.442-.673 0-1.196.268-1.584.805-.387.534-.58 1.22-.58 2.053 0 .802.183 1.452.55 1.954.395.534.918.802 1.578.802.59 0 1.07-.222 1.42-.668.352-.414.526-.91.526-1.488m1.872 3.426h-1.606l-.085-1.306h-.05c-.51.992-1.378 1.49-2.602 1.49-.98 0-1.792-.385-2.438-1.153-.65-.768-.967-1.765-.967-2.99 0-1.313.35-2.377 1.054-3.19.684-.758 1.524-1.137 2.52-1.137 1.1 0 1.865.367 2.302 1.103v-4.662h1.802v9.655c0 .793.026 1.52.07 2.19"/>
            <path d="M165.552 24.777c0-.743-.164-1.382-.486-1.916-.378-.642-.917-.962-1.615-.962-.726 0-1.275.32-1.653.963-.322.535-.483 1.186-.483 1.95 0 .748.16 1.384.483 1.917.393.642.934.966 1.637.966.687 0 1.226-.328 1.613-.98.336-.548.505-1.192.505-1.936m1.87-.042c0 1.248-.357 2.27-1.07 3.072-.747.827-1.74 1.238-2.972 1.238-1.196 0-2.143-.396-2.848-1.187-.705-.79-1.06-1.787-1.06-2.99 0-1.258.363-2.29 1.093-3.09.728-.8 1.713-1.2 2.946-1.2 1.194 0 2.15.394 2.873 1.183.692.768 1.04 1.76 1.04 2.975"/>
            <path d="M176.62 28.86h-1.803V24.2c0-1.44-.544-2.156-1.637-2.156-.535 0-.966.198-1.3.593-.337.395-.5.86-.5 1.395v4.827h-1.808v-5.797c0-.716-.018-1.487-.063-2.325h1.583l.083 1.253h.05c.215-.387.527-.71.934-.964.495-.302 1.036-.453 1.64-.453.755 0 1.387.246 1.885.737.627.6.934 1.497.934 2.688v4.863z"/>
            <path d="M187.727 22.094h-1.987v3.944c0 1.002.35 1.502 1.05 1.502.324 0 .59-.026.803-.083l.05 1.37c-.357.134-.822.2-1.4.2-.713 0-1.273-.216-1.672-.65-.402-.435-.602-1.164-.602-2.19v-4.093h-1.184v-1.35h1.184v-1.488l1.772-.535v2.02h1.984l.003 1.354z"/>
            <path d="M196.746 28.86h-1.807v-4.627c0-1.46-.545-2.19-1.635-2.19-.836 0-1.41.424-1.723 1.272-.052.178-.084.394-.084.65v4.894h-1.803V17.02h1.803v4.876h.037c.567-.88 1.382-1.318 2.438-1.318.747 0 1.363.243 1.854.734.612.613.92 1.52.92 2.722v4.827z"/>
            <path d="M204.36 23.95c.013-.535-.11-.996-.352-1.386-.315-.5-.788-.75-1.436-.75-.59 0-1.07.243-1.435.733-.3.392-.477.86-.538 1.404h3.76zm1.72.467c0 .324-.027.596-.07.817h-5.41c.028.804.282 1.415.784 1.838.458.38 1.045.57 1.77.57.803 0 1.53-.128 2.185-.385l.284 1.255c-.768.332-1.676.5-2.724.5-1.254 0-2.244-.37-2.96-1.11-.72-.74-1.077-1.734-1.077-2.982 0-1.222.33-2.244 1.002-3.057.697-.866 1.642-1.3 2.836-1.3 1.168 0 2.056.434 2.654 1.3.485.688.725 1.543.725 2.554z"/>
        </g>
    </g>
</symbol><symbol id="svg-download" viewBox="0 0 40 40">
    <title>
        download icon
    </title>
    <g transform="translate(1 1)" stroke="#FFF" stroke-width="2" fill="none" fill-rule="evenodd">
        <circle cx="18.736" cy="19" r="18.578"/>
        <g stroke-linecap="round" stroke-linejoin="round">
            <path d="M27.497 18.683l-8.444 8.445-8.445-8.445"/>
            <path d="M19.053 26.062V8.55"/>
        </g>
    </g>
</symbol><symbol id="svg-facebook" viewBox="0 0 50 50">
    <title>
        facebook
    </title>
    <path d="M27.65 40.474V24.857h4.397l.583-5.38h-4.98l.01-2.694c0-1.404.135-2.156 2.19-2.156h2.75V9.245H28.2c-5.28 0-7.14 2.61-7.14 7v3.232H17.77v5.38h3.292v15.617h6.59z" fill="#FFF" fill-rule="evenodd"/>
</symbol><symbol id="svg-icon" viewBox="0 0 204 204">
    <title>
        icon
    </title>
    
    <g transform="translate(26 26)" fill="none" fill-rule="evenodd">
        <mask id="c" fill="#fff">
            <use xlink:href="#a"/>
        </mask>
        <use fill="#D7D7D7" xlink:href="#a"/>
        <path fill="url(#b)" mask="url(#c)" d="M.106 0H153.3v153H.106z"/>
        <g mask="url(#c)">
            <mask id="e" fill="#fff">
                <use xlink:href="#d"/>
            </mask>
            <use fill="#D7D7D7" xlink:href="#d"/>
            <use fill="url(#b)" mask="url(#e)" xlink:href="#f"/>
            <use xlink:href="#f"/>
        </g>
        <path d="M76.692 140.452c34.784 0 62.973-28.636 62.973-63.95 0-35.315-28.19-63.95-62.973-63.95S13.72 41.186 13.72 76.5c0 35.314 28.19 63.95 62.972 63.95zm0-4.752c-32.17 0-58.257-26.5-58.257-59.198 0-32.7 26.087-59.2 58.257-59.2s58.258 26.5 58.258 59.2c0 32.698-26.087 59.198-58.258 59.198z" fill="#FFF" mask="url(#c)"/>
        <g mask="url(#c)" fill="#FFF">
            <path d="M72.166 106.544L57.66 96.518l.98 1.875V54.468l-.98 1.875 14.506-10.026-2.79-.188 35.153 31.988v-3.375L69.376 106.73l2.79-.186zm-2.553 3.75c.86.596 2.014.518 2.79-.187l35.15-31.99c.993-.902.993-2.47 0-3.374l-35.15-31.99c-.776-.704-1.93-.782-2.79-.187L55.107 52.593c-.614.424-.98 1.125-.98 1.875v43.925c0 .75.366 1.45.98 1.875l14.506 10.027zM55.767 88.59l14.414 4.8c.518.172 1.078.15 1.58-.06l35.13-14.8c1.85-.78 1.85-3.42 0-4.198l-35.13-14.8c-.59-.25-1.256-.234-1.834.04L55.51 66.435c-1.126.536-1.608 1.89-1.075 3.027.532 1.137 1.877 1.623 3.004 1.086l14.413-6.86-1.834.042 35.13 14.8v-4.196l-35.13 14.8 1.578-.06-14.414-4.802c-1.184-.394-2.46.253-2.85 1.446-.393 1.192.25 2.478 1.433 2.873zm17.38 19.83V44.44c0-1.256-1.01-2.274-2.257-2.274s-2.257 1.018-2.257 2.274v63.977c0 1.255 1.01 2.273 2.257 2.273 1.246 0 2.256-1.018 2.256-2.274z"/>
            <path d="M71.773 60.196l-14.586-7.598-2.072 4.04L69.7 64.236l2.073-4.04z"/>
            <path d="M69.7 89.503L55.116 97.1l2.072 4.04 14.586-7.597-2.072-4.04z"/>
        </g>
    </g>
</symbol><symbol id="svg-ionlogo" viewBox="0 0 50 30">
    <title>
        ion logo
    </title>
    <g fill="#FFF" fill-rule="evenodd">
        <path d="M3.037 27.905h3.807V2.122H3.037v25.783z"/>
        <path d="M43.303 2.122v20.062L27.05 2.267c-2.682-.724-6.526.54-7.76 1.16-5.43 2.724-9.762 9.55-6.297 17.308 3.32 7.433 13.5 9.665 20.573 4.128 1.366-1.07 2.865-2.608 3.44-4.417.05-.025.098-.05.147-.073l6.15 7.532h3.66V2.122h-3.66zm-20.06 22.234c-5.004-1.04-9.567-6.688-6.955-12.963 1.392-3.344 4.115-5 6.735-5.577h.22v18.54zm3.66-.078c.025-5.43-.024-10.858 0-16.29l7.248 8.69c-.052 3.49-3.882 7.38-7.247 7.6z"/>
    </g>
</symbol><symbol id="svg-play" viewBox="0 0 66 66">
    <title>
        play icon
    </title>
    <g transform="translate(1 1)" fill="none" fill-rule="evenodd">
        <circle stroke="#FFF" stroke-width="3" cx="32" cy="32" r="32"/>
        <path d="M27.39 44.382c-1.873 1.17-3.39.335-3.39-1.88V22.998c0-2.21 1.512-3.055 3.39-1.882l15.22 9.514c1.873 1.17 1.878 3.063 0 4.236l-15.22 9.514z" fill="#FFF"/>
    </g>
</symbol><symbol id="svg-sktchTuts" viewBox="0 0 348 94">
    <title>
        SktchTuts
    </title>
    <text transform="translate(14 4)" font-weight="260" font-family="SF Compact Display" font-size="71.314" font-style="condensed" fill="#FFF" fill-rule="evenodd">
        <tspan x=".939" y="68">Skt&#x441;h</tspan> <tspan x="173.06" y="68" font-weight="633">Tuts</tspan>
    </text>
</symbol><symbol id="svg-subscribe" viewBox="0 0 66 66">
    <title>
        subscribe icon
    </title>
    <g transform="translate(9 9)" stroke="#F6A623" stroke-width="4" fill="none" fill-rule="evenodd">
        <circle cx="24" cy="24" r="24"/>
        <path d="M20.428 13.384L31.095 24.05 20.428 34.72" stroke-linecap="round" stroke-linejoin="round"/>
    </g>
</symbol><symbol id="svg-twitter" viewBox="0 0 50 50">
    <title>
        twitter
    </title>
    <path d="M24.22 18.484l.076 1.215-1.253-.15c-4.56-.57-8.542-2.504-11.924-5.753l-1.654-1.612-.426 1.19c-.902 2.654-.326 5.456 1.553 7.34 1.002 1.043.777 1.19-.952.57-.6-.197-1.126-.346-1.176-.27-.175.172.426 2.43.902 3.322.65 1.24 1.98 2.455 3.432 3.174l1.227.57-1.453.026c-1.403 0-1.453.025-1.302.546.5 1.612 2.48 3.323 4.684 4.067l1.553.52-1.353.793c-2.004 1.14-4.358 1.785-6.713 1.835-1.126.025-2.053.124-2.053.198 0 .248 3.056 1.637 4.835 2.183 5.335 1.61 11.673.916 16.433-1.836 3.38-1.96 6.763-5.853 8.34-9.622.853-2.01 1.705-5.68 1.705-7.44 0-1.14.075-1.29 1.478-2.653.826-.795 1.603-1.663 1.753-1.91.252-.472.227-.472-1.05-.05-2.13.744-2.43.644-1.38-.472.778-.793 1.705-2.23 1.705-2.653 0-.074-.376.05-.802.273-.45.248-1.453.62-2.204.843l-1.354.423-1.227-.82c-.678-.445-1.63-.94-2.13-1.09-1.278-.347-3.232-.298-4.384.1-3.132 1.115-5.11 3.992-4.885 7.14z" fill="#FFF" fill-rule="evenodd"/>
</symbol></svg>