<?xml version="1.0" encoding="UTF-8" standalone="no"?>
<svg width="240px" height="80px" viewBox="0 0 240 80" version="1.1" xmlns="http://www.w3.org/2000/svg" xmlns:xlink="http://www.w3.org/1999/xlink" xmlns:sketch="http://www.bohemiancoding.com/sketch/ns">
    <!-- Generator: Sketch 3.4.2 (15857) - http://www.bohemiancoding.com/sketch -->
    <title>Appstore</title>
    <desc>Created with Sketch.</desc>
    <defs>
        <path id="path-1" d="M0.665165017,69.5907692 L232.944634,69.5907692 L232.944634,0.727692308 L0.665165017,0.727692308"></path>
    </defs>
    <g id="Welcome" stroke="none" stroke-width="1" fill="none" fill-rule="evenodd" sketch:type="MSPage">
        <g id="Appstore" sketch:type="MSArtboardGroup">
            <g id="Page-1-Copy" sketch:type="MSLayerGroup" transform="translate(4.000000, 5.000000)">
                <g id="Group-6">
                    <path d="M231.402297,61.4625385 C231.402297,65.1056154 228.452501,68.0579231 224.802937,68.0579231 L8.80578515,68.0579231 C5.15775875,68.0579231 2.19796667,65.1056154 2.19796667,61.4625385 L2.19796667,8.86407692 C2.19796667,5.221 5.15775875,2.26023077 8.80578515,2.26023077 L224.801399,2.26023077 C228.452501,2.26023077 231.399221,5.221 231.399221,8.86407692 L231.402297,61.4625385" id="Fill-1" fill="#FFFFFF" sketch:type="MSShapeGroup"></path>
                    <g id="Group-5">
                        <mask id="mask-2" sketch:name="Clip 4" fill="white">
                            <use xlink:href="#path-1"></use>
                        </mask>
                        <g id="Clip-4"></g>
                        <path d="M224.801399,69.5928462 L8.80578515,69.5928462 C4.31803597,69.5928462 0.663857756,65.9466923 0.663857756,61.4605385 L0.663857756,8.86592308 C0.663857756,4.379 4.31803597,0.729 8.80578515,0.729 L224.801399,0.729 C229.282996,0.729 232.94025,4.379 232.94025,8.86592308 L232.94025,61.4605385 C232.944864,65.9466923 229.289148,69.5928462 224.801399,69.5928462" id="Fill-3" fill="#FFFFFF" sketch:type="MSShapeGroup" mask="url(#mask-2)"></path>
                    </g>
                </g>
                <g id="Group-13" transform="translate(1.537954, 1.538462)" sketch:type="MSShapeGroup">
                    <path d="M229.864343,59.9240769 C229.864343,63.5671538 226.914548,66.5194615 223.264983,66.5194615 L7.26783135,66.5194615 C3.61980495,66.5194615 0.660012871,63.5671538 0.660012871,59.9240769 L0.660012871,7.32561538 C0.660012871,3.68253846 3.61980495,0.721769231 7.26783135,0.721769231 L223.263445,0.721769231 C226.914548,0.721769231 229.861267,3.68253846 229.861267,7.32561538 L229.864343,59.9240769" id="Fill-7" fill="#000000"></path>
                    <path d="M50.9920116,33.2594615 C50.9420281,27.7071538 55.535896,25.0071538 55.7458267,24.8833077 C53.1443779,21.0879231 49.113401,20.571 47.6946386,20.5294615 C44.3096023,20.1733077 41.024533,22.5563846 39.3004868,22.5563846 C37.5402987,22.5563846 34.8842525,20.5633077 32.0228894,20.621 C28.3379521,20.6779231 24.8898597,22.8117692 23.0004835,26.1279231 C19.0986947,32.881 22.0092723,42.8102308 25.7465,48.2686923 C27.6158828,50.9456154 29.8013152,53.9302308 32.6603713,53.8271538 C35.4586782,53.711 36.5037178,52.0433077 39.8787574,52.0433077 C43.223038,52.0433077 44.2042525,53.8271538 47.1217508,53.7571538 C50.1222987,53.711 52.0132129,51.071 53.8180017,48.371 C55.9780578,45.3117692 56.8454637,42.2894615 56.8792987,42.1325385 C56.8116287,42.1117692 51.0527607,39.911 50.9920116,33.2594615" id="Fill-9" fill="#FFFFFF"></path>
                    <path d="M45.4837531,16.9373077 C46.9878719,15.055 48.018301,12.4942308 47.7314726,9.89653846 C45.55373,9.99269231 42.8300139,11.4034615 41.261301,13.2442308 C39.8748356,14.8657692 38.6367828,17.5242308 38.9543703,20.0257692 C41.4020238,20.2073077 43.9135023,18.7880769 45.4837531,16.9373077" id="Fill-11" fill="#FFFFFF"></path>
                </g>
                <g id="Group-51" transform="translate(73.052805, 11.538462)" fill="#FFFFFF" sketch:type="MSShapeGroup">
                    <path d="M13.299763,33.8866923 L11.3627102,27.9028462 C11.1597003,27.2913077 10.772136,25.8497692 10.2084759,23.5859231 L10.139268,23.5859231 C9.91165083,24.5582308 9.54869373,25.9966923 9.05193465,27.9028462 L7.14717888,33.8866923 L13.299763,33.8866923 Z M19.9967828,43.4397692 L16.0880733,43.4397692 L13.9457036,36.7105385 L6.50277624,36.7105385 L4.4634495,43.4397692 L0.656244884,43.4397692 L8.03227129,20.5228462 L12.5876904,20.5228462 L19.9967828,43.4397692 Z" id="Fill-17"></path>
                    <path d="M35.1911512,35.1111538 C35.1911512,33.5034615 34.830501,32.1773077 34.1030488,31.1303846 C33.3094647,30.0442308 32.2436627,29.5003846 30.9064119,29.5003846 C30.002864,29.5003846 29.1800587,29.8042308 28.4441479,30.4019231 C27.707468,31.0042308 27.2268574,31.7896154 27.0000092,32.7657692 C26.8869696,33.2211538 26.8292964,33.5880769 26.8292964,33.8819231 L26.8292964,36.6403846 C26.8292964,37.8388462 27.1991743,38.8526923 27.9335472,39.6842308 C28.670996,40.5111538 29.6268343,40.925 30.8056759,40.925 C32.1882964,40.925 33.2633261,40.3896154 34.0338409,39.3265385 C34.8058937,38.2642308 35.1911512,36.8557692 35.1911512,35.1111538 M38.9306858,34.975 C38.9306858,37.7873077 38.1686297,40.0088462 36.6399036,41.6388462 C35.2734317,43.0896154 33.5755307,43.8134615 31.5477386,43.8134615 C29.3599993,43.8134615 27.7859036,43.0334615 26.8292964,41.4688462 L26.8292964,50.1434615 L23.1605076,50.1434615 L23.1605076,32.3496154 C23.1605076,30.5842308 23.114369,28.7742308 23.0236297,26.9173077 L26.2517947,26.9173077 L26.4571116,29.5380769 L26.5263195,29.5380769 C27.7505307,27.5619231 29.6083789,26.5757692 32.099864,26.5757692 C34.0507584,26.5757692 35.6763756,27.3465385 36.9774845,28.8880769 C38.2778244,30.4326923 38.9306858,32.4596154 38.9306858,34.975" id="Fill-19"></path>
                    <path d="M54.1891868,35.1111538 C54.1891868,33.5034615 53.8246917,32.1773077 53.1018535,31.1303846 C52.3075003,30.0442308 51.2424673,29.5003846 49.9075234,29.5003846 C49.0016686,29.5003846 48.1796323,29.8042308 47.4414145,30.4019231 C46.7062726,31.0042308 46.2272,31.7896154 45.9988139,32.7657692 C45.8865432,33.2211538 45.8250251,33.5880769 45.8250251,33.8819231 L45.8250251,36.6403846 C45.8250251,37.8388462 46.1964409,38.8526923 46.9315828,39.6842308 C47.6705696,40.5088462 48.623332,40.925 49.8044805,40.925 C51.1894079,40.925 52.2652066,40.3896154 53.0311076,39.3265385 C53.8016224,38.2642308 54.1891868,36.8557692 54.1891868,35.1111538 M57.9302594,34.975 C57.9302594,37.7873077 57.1658964,40.0088462 55.6417842,41.6388462 C54.2730053,43.0896154 52.5727974,43.8134615 50.5473122,43.8134615 C48.3618799,43.8134615 46.7847083,43.0334615 45.8304079,41.4688462 L45.8304079,50.1434615 L42.1593122,50.1434615 L42.1593122,32.3496154 C42.1593122,30.5842308 42.1131736,28.7742308 42.0247413,26.9173077 L45.2513683,26.9173077 L45.4574541,29.5380769 L45.5258931,29.5380769 C46.7454904,27.5619231 48.6041076,26.5757692 51.0994376,26.5757692 C53.0480251,26.5757692 54.6751802,27.3465385 55.9778271,28.8880769 C57.2758601,30.4326923 57.9302594,32.4596154 57.9302594,34.975" id="Fill-21"></path>
                    <path d="M79.1734,37.0146923 C79.1734,38.9646923 78.4913175,40.5531538 77.1371492,41.7762308 C75.6468719,43.1108462 73.5644825,43.7808462 70.8976706,43.7808462 C68.4323307,43.7808462 66.456829,43.3046923 64.9627069,42.3508462 L65.8124264,39.2916154 C67.4211261,40.2446923 69.1920799,40.7208462 71.1160601,40.7208462 C72.5002185,40.7208462 73.5767861,40.4108462 74.3449941,39.787 C75.1155089,39.1654615 75.5007663,38.3316154 75.5007663,37.2877692 C75.5007663,36.3577692 75.1808719,35.5777692 74.5503109,34.9431538 C73.915136,34.307 72.8624066,33.7185385 71.3890469,33.177 C67.3772944,31.6816154 65.3694957,29.4916154 65.3694957,26.6093077 C65.3694957,24.7308462 66.0792614,23.1916154 67.4941789,21.9893077 C68.9090964,20.7854615 70.783862,20.1854615 73.1207828,20.1854615 C75.2039413,20.1854615 76.941829,20.5493077 78.3190667,21.2739231 L77.3978323,24.2662308 C76.1005683,23.5631538 74.6348983,23.2131538 72.9977465,23.2131538 C71.7012515,23.2131538 70.686202,23.5308462 69.9595188,24.1654615 C69.3481822,24.7308462 69.0398224,25.4223846 69.0398224,26.2423846 C69.0398224,27.1462308 69.3920139,27.8977692 70.0925518,28.487 C70.7038884,29.0285385 71.8142911,29.617 73.4245287,30.2523846 C75.3954165,31.0462308 76.842631,31.9762308 77.7723241,33.0393077 C78.706631,34.1016154 79.1734,35.4308462 79.1734,37.0146923" id="Fill-23"></path>
                    <path d="M91.3403832,29.6709231 L87.2940267,29.6709231 L87.2940267,37.6970769 C87.2940267,39.7355385 88.0091752,40.754 89.4333205,40.754 C90.0915647,40.754 90.6329244,40.6978462 91.0658584,40.5855385 L91.1673634,43.3724615 C90.4437561,43.6409231 89.4917627,43.7786154 88.3121521,43.7786154 C86.8649376,43.7786154 85.7291587,43.3324615 84.9125053,42.4493846 C84.0981587,41.5670769 83.689063,40.0809231 83.689063,37.9955385 L83.689063,29.664 L81.2821653,29.664 L81.2821653,26.9124615 L83.689063,26.9124615 L83.689063,23.8832308 L87.2940267,22.7947692 L87.2940267,26.9124615 L91.3403832,26.9124615 L91.3403832,29.6709231 Z" id="Fill-25"></path>
                    <path d="M105.751933,35.1269231 C105.751933,33.6130769 105.422042,32.3153846 104.769181,31.2292308 C103.998666,29.9192308 102.895953,29.26 101.469501,29.26 C99.9999858,29.26 98.8711277,29.9192308 98.1052267,31.2292308 C97.4462135,32.3153846 97.1193983,33.6376923 97.1193983,35.1946154 C97.1193983,36.7107692 97.4462135,38.0138462 98.1052267,39.0953846 C98.8988109,40.4107692 100.005369,41.0669231 101.439511,41.0669231 C102.842124,41.0669231 103.941761,40.3946154 104.740728,39.0623077 C105.413583,37.9507692 105.751933,36.6430769 105.751933,35.1269231 M109.555293,35.0430769 C109.555293,37.5815385 108.831685,39.6653846 107.379088,41.2984615 C105.863435,42.9776923 103.846408,43.8138462 101.331854,43.8138462 C98.9041937,43.8138462 96.9748307,43.01 95.5368439,41.4030769 C94.0965502,39.7938462 93.3767878,37.7646154 93.3767878,35.3184615 C93.3767878,32.7561538 94.1188505,30.6584615 95.6022069,29.0284615 C97.0863323,27.3984615 99.0856723,26.5807692 101.602534,26.5807692 C104.026349,26.5807692 105.971091,27.3884615 107.446758,28.9953846 C108.854755,30.5561538 109.555293,32.57 109.555293,35.0430769" id="Fill-27"></path>
                    <path d="M121.491198,30.1449231 C121.127472,30.0795385 120.739908,30.0472308 120.333119,30.0472308 C119.044314,30.0472308 118.046182,30.528 117.344106,31.5072308 C116.731231,32.3687692 116.426717,33.4572308 116.426717,34.7726154 L116.426717,43.4418462 L112.757159,43.4418462 L112.757159,32.1187692 C112.757159,30.218 112.721786,28.4818462 112.649502,26.9195385 L115.84537,26.9195385 L115.981479,30.0795385 L116.084522,30.0795385 C116.472086,28.9933846 117.083423,28.1172308 117.916994,27.4641538 C118.733647,26.8703077 119.61874,26.5756923 120.572271,26.5756923 C120.909852,26.5756923 121.216674,26.6018462 121.48966,26.6410769 L121.491198,30.1449231 Z" id="Fill-29"></path>
                    <path d="M134.406088,33.4457692 C134.431465,32.355 134.191544,31.4157692 133.694016,30.6211538 C133.058841,29.5988462 132.078395,29.0896154 130.771135,29.0896154 C129.569993,29.0896154 128.59493,29.5865385 127.847484,30.5865385 C127.237686,31.3803846 126.876267,32.3365385 126.763996,33.4434615 L134.406088,33.4457692 Z M137.90724,34.3957692 C137.90724,35.055 137.864947,35.6103846 137.773438,36.0611538 L126.763996,36.0611538 C126.801676,37.6934615 127.338422,38.9434615 128.361161,39.8057692 C129.28624,40.5765385 130.485844,40.9596154 131.960742,40.9596154 C133.591742,40.9596154 135.078943,40.7026923 136.413887,40.1796154 L136.99062,42.7273077 C135.42729,43.4073077 133.581745,43.7488462 131.453217,43.7488462 C128.889448,43.7488462 126.880881,42.9911538 125.417517,41.4873077 C123.95723,39.9834615 123.226702,37.9557692 123.226702,35.4234615 C123.226702,32.9319231 123.901864,30.855 125.26526,29.2011538 C126.694019,27.4311538 128.617999,26.5480769 131.041815,26.5480769 C133.424105,26.5480769 135.225818,27.4311538 136.448491,29.2011538 C137.420478,30.5980769 137.90724,32.3365385 137.90724,34.3957692 L137.90724,34.3957692 Z" id="Fill-31"></path>
                    <path d="M10.1487264,6.46930769 C10.1487264,5.15623077 9.80191782,4.15084615 9.10676271,3.45238462 C8.41083861,2.75161538 7.39502013,2.40007692 6.05776931,2.40007692 C5.48949538,2.40007692 5.00657789,2.43930769 4.60440297,2.51776923 L4.60440297,10.9200769 C4.82740627,10.9562308 5.23342607,10.9700769 5.82476931,10.9700769 C7.20354488,10.9700769 8.27011584,10.5862308 9.02140627,9.81930769 C9.77192772,9.05469231 10.1487264,7.93238462 10.1487264,6.46930769 M12.0534822,6.417 C12.0534822,8.43930769 11.4452215,9.96315385 10.2325449,10.9877692 C9.10676271,11.9323846 7.50882871,12.4054615 5.44181881,12.4054615 C4.41523465,12.4054615 3.53860099,12.3593077 2.80192112,12.2708462 L2.80192112,1.21161538 C3.76006634,1.05853846 4.79357129,0.980076923 5.91012574,0.980076923 C7.88024455,0.980076923 9.36744587,1.40776923 10.3671158,2.26084615 C11.4905911,3.23084615 12.0534822,4.61623077 12.0534822,6.417" id="Fill-33"></path>
                    <path d="M19.750095,8.23838462 C19.750095,7.49530769 19.5878409,6.85684615 19.2679465,6.323 C18.887303,5.67992308 18.3490191,5.35992308 17.6492502,5.35992308 C16.9248739,5.35992308 16.3712106,5.67992308 15.9944119,6.323 C15.6706726,6.85684615 15.5107254,7.50761538 15.5107254,8.27223077 C15.5107254,9.01915385 15.6706726,9.65530769 15.9944119,10.1883846 C16.3842832,10.8306923 16.9294878,11.1545385 17.6323327,11.1545385 C18.321336,11.1545385 18.8603888,10.8260769 19.2479531,10.1737692 C19.585534,9.62607692 19.750095,8.98223077 19.750095,8.23838462 M21.6233228,8.19607692 C21.6233228,9.44453846 21.2665175,10.4676154 20.551369,11.2683846 C19.8046924,12.0953077 18.8165571,12.5060769 17.5800422,12.5060769 C16.388897,12.5060769 15.4399795,12.1106923 14.7325208,11.3191538 C14.025831,10.5299231 13.6744086,9.533 13.6744086,8.32915385 C13.6744086,7.07146154 14.0365967,6.04069231 14.7678937,5.23992308 C15.4968838,4.44069231 16.4780983,4.03915385 17.7130752,4.03915385 C18.9057584,4.03915385 19.8631347,4.43376923 20.5875109,5.223 C21.2757452,5.98992308 21.6233228,6.983 21.6233228,8.19607692" id="Fill-35"></path>
                    <path d="M34.6294904,4.20369231 L32.0903287,12.3213846 L30.4385663,12.3213846 L29.3866059,8.796 C29.117464,7.916 28.9029195,7.04215385 28.7337446,6.17523077 L28.6999096,6.17523077 C28.5445762,7.06753846 28.3277248,7.93907692 28.0470482,8.796 L26.9297248,12.3213846 L25.2595069,12.3213846 L22.8702957,4.20369231 L24.725837,4.20369231 L25.6424574,8.06446154 C25.8662297,8.97523077 26.0484772,9.84523077 26.1945828,10.6683077 L26.2276488,10.6683077 C26.3614508,9.98830769 26.5836851,9.126 26.8974277,8.08061538 L28.0470482,4.206 L29.517332,4.206 L30.6223518,7.99676923 C30.8899558,8.92292308 31.1045003,9.81292308 31.2729063,10.6706154 L31.3236587,10.6706154 C31.4443881,9.836 31.6289426,8.94369231 31.8727083,7.99676923 L32.8569987,4.206 L34.6294904,4.206 L34.6294904,4.20369231 Z" id="Fill-37"></path>
                    <path d="M43.4813373,12.3226923 L41.6734726,12.3226923 L41.6734726,7.66038462 C41.6734726,6.22269231 41.1321129,5.50576923 40.0393967,5.50576923 C39.5034198,5.50576923 39.0743307,5.70346154 38.7367498,6.09884615 C38.4014759,6.49346154 38.2369149,6.95961538 38.2369149,7.49346154 L38.2369149,12.3203846 L36.4321261,12.3203846 L36.4321261,6.52423077 C36.4321261,5.80884615 36.4098257,5.03730769 36.366763,4.19961538 L37.9523934,4.19961538 L38.0362119,5.45269231 L38.0861954,5.45269231 C38.296895,5.065 38.6098686,4.74269231 39.0212713,4.48730769 C39.5111096,4.18576923 40.0563142,4.03423077 40.6553472,4.03423077 C41.4158653,4.03423077 42.0456574,4.28038462 42.5447234,4.77115385 C43.1683637,5.37115385 43.4813373,6.26807692 43.4813373,7.45961538 L43.4813373,12.3226923 Z" id="Fill-39"></path>
                    <path d="M47.9172574,12.3230769 L46.1147756,12.3230769 L46.1147756,0.481538462 L47.9172574,0.481538462 L47.9172574,12.3230769 Z" id="Fill-41"></path>
                    <path d="M56.1551531,8.23838462 C56.1551531,7.49530769 55.9913611,6.85684615 55.6699287,6.323 C55.2915921,5.67992308 54.7525393,5.35992308 54.0496944,5.35992308 C53.3253182,5.35992308 52.7785756,5.67992308 52.3956251,6.323 C52.0734238,6.85684615 51.9150145,7.50761538 51.9150145,8.27223077 C51.9150145,9.01915385 52.0734238,9.65530769 52.3956251,10.1883846 C52.7878033,10.8306923 53.329932,11.1545385 54.0327769,11.1545385 C54.7217802,11.1545385 55.2631399,10.8260769 55.6507043,10.1737692 C55.9867472,9.62607692 56.1551531,8.98223077 56.1551531,8.23838462 M58.023767,8.19607692 C58.023767,9.44453846 57.6684997,10.4676154 56.9541201,11.2683846 C56.2059056,12.0953077 55.2193083,12.5060769 53.9835624,12.5060769 C52.7931861,12.5060769 51.8434997,12.1106923 51.132965,11.3191538 C50.4278132,10.5299231 50.0725459,9.533 50.0725459,8.32915385 C50.0725459,7.07146154 50.4370409,6.04069231 51.168338,5.23992308 C51.8965591,4.44069231 52.8770046,4.03915385 54.1173644,4.03915385 C55.3077406,4.03915385 56.2635789,4.43376923 56.9864172,5.223 C57.6777274,5.98992308 58.023767,6.983 58.023767,8.19607692" id="Fill-43"></path>
                    <path d="M64.3856667,9.53269231 L64.3856667,8.27884615 C62.3917096,8.245 61.3966535,8.79038462 61.3966535,9.91807692 C61.3966535,10.3403846 61.5143069,10.6557692 61.745,10.8696154 C61.978769,11.0803846 62.2725182,11.1842308 62.6231716,11.1842308 C63.0245776,11.1842308 63.3913795,11.0611538 63.7297294,10.8096154 C64.0688482,10.5588462 64.275703,10.2403846 64.3556766,9.84961538 L64.3856667,9.53269231 Z M66.2565875,12.3211538 L64.6363531,12.3211538 L64.5048581,11.3857692 L64.4533366,11.3857692 C63.8958284,12.1319231 63.1060891,12.5057692 62.0841188,12.5057692 C61.312835,12.5057692 60.6968845,12.2596154 60.2278086,11.7711538 C59.8048713,11.3265385 59.5972475,10.7734615 59.5972475,10.1188462 C59.5972475,9.12653846 60.0109571,8.37038462 60.8399142,7.84653846 C61.6657954,7.32269231 62.8331023,7.06576923 64.3379901,7.07884615 L64.3379901,6.92576923 C64.3379901,5.85884615 63.776637,5.32346154 62.6508548,5.32346154 C61.8472739,5.32346154 61.1428911,5.52423077 60.5361683,5.92423077 L60.1624455,4.73961538 C60.9206568,4.27192308 61.8472739,4.03884615 62.9546007,4.03884615 C65.0769769,4.03884615 66.1443168,5.15807692 66.1443168,7.39653846 L66.1443168,10.3857692 C66.1350891,11.1965385 66.1789208,11.8426923 66.2565875,12.3211538 L66.2565875,12.3211538 Z" id="Fill-44"></path>
                    <path d="M74.1209911,8.898 L74.1209911,7.54492308 C74.1209911,7.31030769 74.1056116,7.12030769 74.0733145,6.97723077 C73.9710406,6.54261538 73.7518822,6.17876923 73.4150703,5.88184615 C73.0813343,5.58723077 72.6799284,5.43953846 72.2108525,5.43953846 C71.5379977,5.43953846 71.0150934,5.70723077 70.627529,6.24415385 C70.2399647,6.77876923 70.0477205,7.46338462 70.0477205,8.298 C70.0477205,9.09953846 70.229968,9.74953846 70.5975389,10.2518462 C70.9920241,10.7856923 71.5149284,11.0533846 72.1754795,11.0533846 C72.7660538,11.0533846 73.2451264,10.8310769 73.5965488,10.3856923 C73.9472023,9.97107692 74.1209911,9.47646154 74.1209911,8.898 M75.9934498,12.3233846 L74.3870571,12.3233846 L74.3024696,11.0172308 L74.2532551,11.0172308 C73.7426545,12.0095385 72.8737106,12.5064615 71.6502683,12.5064615 C70.6698228,12.5064615 69.8585521,12.1226154 69.2126116,11.3541538 C68.5628261,10.5864615 68.2452386,9.58953846 68.2452386,8.36492308 C68.2452386,7.05184615 68.5943541,5.98723077 69.298737,5.17415385 C69.9831264,4.41646154 70.8236182,4.038 71.8186743,4.038 C72.9198492,4.038 73.6842122,4.40415385 74.1209911,5.14030769 L74.1209911,0.479538462 L75.9234729,0.479538462 L75.9234729,10.1349231 C75.9234729,10.9272308 75.9488492,11.6533846 75.9934498,12.3233846" id="Fill-45"></path>
                    <path d="M88.4987828,8.23838462 C88.4987828,7.49530769 88.3349908,6.85684615 88.0135584,6.323 C87.6352218,5.67992308 87.096169,5.35992308 86.397938,5.35992308 C85.6712548,5.35992308 85.1222053,5.67992308 84.7438686,6.323 C84.4224363,6.85684615 84.2609512,7.50761538 84.2609512,8.27223077 C84.2609512,9.01915385 84.4224363,9.65530769 84.7438686,10.1883846 C85.1368158,10.8306923 85.6781756,11.1545385 86.3810205,11.1545385 C87.0677168,11.1545385 87.6067696,10.8260769 87.994334,10.1737692 C88.3303769,9.62607692 88.4987828,8.98223077 88.4987828,8.23838462 M90.3697036,8.19607692 C90.3697036,9.44453846 90.0121294,10.4676154 89.2977498,11.2683846 C88.5526112,12.0953077 87.559862,12.5060769 86.3271921,12.5060769 C85.131433,12.5060769 84.1840535,12.1106923 83.4796706,11.3191538 C82.7737498,10.5299231 82.4192515,9.533 82.4192515,8.32915385 C82.4192515,7.07146154 82.7822086,6.04069231 83.5119677,5.23992308 C84.2401888,4.44069231 85.2252482,4.03915385 86.4586871,4.03915385 C87.6513703,4.03915385 88.6072086,4.43376923 89.3300469,5.223 C90.0221261,5.98992308 90.3697036,6.983 90.3697036,8.19607692" id="Fill-46"></path>
                    <path d="M99.5663597,12.3226923 L97.7638779,12.3226923 L97.7638779,7.66038462 C97.7638779,6.22269231 97.2202112,5.50576923 96.1267261,5.50576923 C95.5922871,5.50576923 95.1608911,5.70346154 94.8263861,6.09884615 C94.4903432,6.49346154 94.3273201,6.95961538 94.3273201,7.49346154 L94.3273201,12.3203846 L92.5194554,12.3203846 L92.5194554,6.52423077 C92.5194554,5.80884615 92.501,5.03730769 92.4563993,4.19961538 L94.0397228,4.19961538 L94.1235413,5.45269231 L94.1727558,5.45269231 C94.3880693,5.065 94.7002739,4.74269231 95.1070627,4.48730769 C95.6022838,4.18576923 96.1436436,4.03423077 96.7457525,4.03423077 C97.5024257,4.03423077 98.1337558,4.28038462 98.6320528,4.77115385 C99.258769,5.37115385 99.5663597,6.26807692 99.5663597,7.45961538 L99.5663597,12.3226923 Z" id="Fill-47"></path>
                    <path d="M110.674462,5.55584615 L108.687425,5.55584615 L108.687425,9.49969231 C108.687425,10.502 109.03731,11.0012308 109.737079,11.0012308 C110.061587,11.0012308 110.326115,10.9758462 110.54066,10.9189231 L110.590643,12.2889231 C110.233069,12.4227692 109.767838,12.4896923 109.188798,12.4896923 C108.477495,12.4896923 107.916911,12.2727692 107.517812,11.8389231 C107.114868,11.4035385 106.914934,10.6743077 106.914934,9.64815385 L106.914934,5.55584615 L105.730709,5.55584615 L105.730709,4.20430769 L106.914934,4.20430769 L106.914934,2.71738462 L108.687425,2.18276923 L108.687425,4.202 L110.671386,4.202 L110.674462,5.55584615 Z" id="Fill-48"></path>
                    <path d="M119.693407,12.3226923 L117.886312,12.3226923 L117.886312,7.69423077 C117.886312,6.23576923 117.342645,5.50576923 116.252236,5.50576923 C115.416358,5.50576923 114.84347,5.92807692 114.528958,6.77653846 C114.477437,6.95423077 114.44514,7.17038462 114.44514,7.42576923 L114.44514,12.3203846 L112.641889,12.3203846 L112.641889,0.480384615 L114.44514,0.480384615 L114.44514,5.35730769 L114.482051,5.35730769 C115.049556,4.47730769 115.864671,4.03961538 116.919708,4.03961538 C117.667153,4.03961538 118.283104,4.28269231 118.77448,4.77346154 C119.385817,5.38653846 119.693407,6.295 119.693407,7.49576923 L119.693407,12.3226923 Z" id="Fill-49"></path>
                    <path d="M127.305817,7.41284615 C127.320428,6.87669231 127.19816,6.41515385 126.955164,6.02515385 C126.639883,5.52592308 126.166962,5.27438462 125.519484,5.27438462 C124.930448,5.27438462 124.449837,5.51823077 124.083804,6.00823077 C123.784672,6.40053846 123.607038,6.86746154 123.546289,7.41284615 L127.305817,7.41284615 Z M129.026018,7.87823077 C129.026018,8.20284615 129.000642,8.47438462 128.958349,8.69592308 L123.546289,8.69592308 C123.574741,9.49976923 123.829273,10.1105385 124.331415,10.5336154 C124.788956,10.9143846 125.376454,11.1036154 126.10083,11.1036154 C126.904411,11.1036154 127.632632,10.9759231 128.286263,10.7182308 L128.571553,11.9736154 C127.803345,12.3059231 126.895183,12.4728462 125.847068,12.4728462 C124.592867,12.4728462 123.603193,12.1028462 122.888045,11.3636154 C122.166745,10.6220769 121.809939,9.62976923 121.809939,8.38130769 C121.809939,7.15976923 122.140599,6.13746154 122.812685,5.32438462 C123.509378,4.45823077 124.454451,4.02361538 125.648672,4.02361538 C126.81521,4.02361538 127.703378,4.45823077 128.300873,5.32438462 C128.786098,6.01284615 129.026018,6.86746154 129.026018,7.87823077 L129.026018,7.87823077 Z" id="Fill-50"></path>
                </g>
            </g>
        </g>
    </g>
</svg>