<?xml version="1.0" encoding="UTF-8" standalone="no"?>
<svg width="204px" height="204px" viewBox="0 0 204 204" version="1.1" xmlns="http://www.w3.org/2000/svg" xmlns:xlink="http://www.w3.org/1999/xlink" xmlns:sketch="http://www.bohemiancoding.com/sketch/ns">
    <!-- Generator: Sketch 3.4.2 (15857) - http://www.bohemiancoding.com/sketch -->
    <title>icon</title>
    <desc>Created with Sketch.</desc>
    <defs>
        <path id="path-1" d="M53.6831933,0 L99.8136148,0 C115.112111,0 122.759455,0 130.994762,2.61375 C139.985661,5.899425 147.066629,13.008825 150.339163,22.035825 C152.94246,30.302925 152.94246,37.983525 152.94246,53.342175 L152.94246,99.657825 C152.94246,115.01775 152.94246,122.6958 150.339163,130.964175 C147.066629,139.991175 139.985661,147.100575 130.994762,150.384975 C122.759455,153 115.112111,153 99.8136148,153 L53.6831933,153 C38.3846968,153 30.7360834,153 22.5020457,150.384975 C13.5111471,147.100575 6.43017946,139.991175 3.15764475,130.964175 C0.554347826,122.6958 0.554347826,115.01775 0.554347826,99.657825 L0.554347826,53.342175 C0.554347826,37.983525 0.554347826,30.302925 3.15764475,22.035825 C6.43017946,13.008825 13.5111471,5.899425 22.5020457,2.61375 C30.7360834,0 38.3846968,0 53.6831933,0 L53.6831933,0"></path>
        <linearGradient x1="50%" y1="21.0174561%" x2="50%" y2="82.8337682%" id="linearGradient-3">
            <stop stop-color="#FBDA61" offset="0%"></stop>
            <stop stop-color="#EE7300" stop-opacity="0.877858922" offset="100%"></stop>
        </linearGradient>
        <path id="path-4" d="M53.6831933,0 L99.8136148,0 C115.112111,0 122.759455,0 130.994762,2.61375 C139.985661,5.899425 147.066629,13.008825 150.339163,22.035825 C152.94246,30.302925 152.94246,37.983525 152.94246,53.342175 L152.94246,99.657825 C152.94246,115.01775 152.94246,122.6958 150.339163,130.964175 C147.066629,139.991175 139.985661,147.100575 130.994762,150.384975 C122.759455,153 115.112111,153 99.8136148,153 L53.6831933,153 C38.3846968,153 30.7360834,153 22.5020457,150.384975 C13.5111471,147.100575 6.43017946,139.991175 3.15764475,130.964175 C0.554347826,122.6958 0.554347826,115.01775 0.554347826,99.657825 L0.554347826,53.342175 C0.554347826,37.983525 0.554347826,30.302925 3.15764475,22.035825 C6.43017946,13.008825 13.5111471,5.899425 22.5020457,2.61375 C30.7360834,0 38.3846968,0 53.6831933,0 L53.6831933,0"></path>
        <rect id="path-6" x="0.105538251" y="0" width="153.193668" height="153"></rect>
    </defs>
    <g id="Welcome" stroke="none" stroke-width="1" fill="none" fill-rule="evenodd" sketch:type="MSPage">
        <g id="icon" sketch:type="MSArtboardGroup">
            <g id="фззшсщт-copy-2" sketch:type="MSLayerGroup" transform="translate(26.000000, 26.000000)">
                <mask id="mask-2" sketch:name="Mask" fill="white">
                    <use xlink:href="#path-1"></use>
                </mask>
                <use id="Mask" fill="#D7D7D7" sketch:type="MSShapeGroup" xlink:href="#path-1"></use>
                <rect id="Rectangle-183-Copy-2" fill="url(#linearGradient-3)" sketch:type="MSShapeGroup" mask="url(#mask-2)" x="0.105538251" y="0" width="153.193668" height="153"></rect>
                <g id="фззшсщт-copy" mask="url(#mask-2)">
                    <mask id="mask-5" sketch:name="Mask" fill="white">
                        <use xlink:href="#path-4"></use>
                    </mask>
                    <use id="Mask" fill="#D7D7D7" sketch:type="MSShapeGroup" xlink:href="#path-4"></use>
                    <g id="Rectangle-183-Copy-2">
                        <use fill="url(#linearGradient-3)" fill-rule="evenodd" sketch:type="MSShapeGroup" mask="url(#mask-5)" xlink:href="#path-6"></use>
                        <use fill="none" xlink:href="#path-6"></use>
                    </g>
                </g>
                <path d="M76.6924581,140.452387 C111.475766,140.452387 139.665488,111.816378 139.665488,76.501584 C139.665488,41.1867898 111.475766,12.5507812 76.6924581,12.5507812 C41.9091501,12.5507812 13.7194287,41.1867898 13.7194287,76.501584 C13.7194287,111.816378 41.9091501,140.452387 76.6924581,140.452387 L76.6924581,140.452387 Z M76.6924581,135.700372 C44.5221055,135.700372 18.435161,109.200431 18.435161,76.501584 C18.435161,43.8027371 44.5221055,17.3027957 76.6924581,17.3027957 C108.862811,17.3027957 134.949755,43.8027371 134.949755,76.501584 C134.949755,109.200431 108.862811,135.700372 76.6924581,135.700372 L76.6924581,135.700372 Z" id="Shape-Copy-2" fill="#FFFFFF" sketch:type="MSShapeGroup" mask="url(#mask-2)"></path>
                <g id="Diamant" mask="url(#mask-2)" fill="#FFFFFF" sketch:type="MSShapeGroup">
                    <g transform="translate(54.092553, 42.073315)" id="Shape">
                        <path d="M18.0735345,64.4705727 L3.56723309,54.4442394 L4.54749955,56.3196086 L4.54749955,12.3947198 L3.56723309,14.270089 L18.0735344,4.24375569 L15.2845296,4.05614442 L50.4364387,36.0449221 L50.4364387,32.6694063 L15.2845296,64.658184 L18.0735345,64.4705727 L18.0735345,64.4705727 Z M15.5205686,68.221311 C16.381409,68.8162989 17.5348512,68.7387089 18.3095735,68.0336998 L53.4614825,36.0449221 C54.4537858,35.1419108 54.4537858,33.5724175 53.4614825,32.6694063 L18.3095734,0.680628621 C17.5348512,-0.0243805213 16.381409,-0.101970472 15.5205686,0.493017359 L1.01426724,10.5193507 C0.40071097,10.9434229 0.0340007826,11.6449842 0.0340007826,12.3947198 L0.0340007826,56.3196086 C0.0340007826,57.0693442 0.400710971,57.7709055 1.01426725,58.1949777 L15.5205686,68.221311 L15.5205686,68.221311 Z M1.67432001,46.5153199 L16.0887113,51.3171296 C16.6050967,51.489151 17.1657606,51.4674668 17.6675424,51.2560667 L52.7988519,36.4552889 C54.6471964,35.6765837 54.6471964,33.0377445 52.7988519,32.2590393 L17.6675424,17.4582616 C17.0778377,17.2098198 16.4112448,17.225016 15.8332928,17.5000768 L1.41890157,24.3602207 C0.291904039,24.896585 -0.190218588,26.2520354 0.342050544,27.3877039 C0.874319676,28.5233723 2.21942107,29.0092043 3.3464186,28.47284 L17.7608099,21.6126961 L15.9265603,21.6545113 L51.0578698,36.4552889 L51.0578698,32.2590393 L15.9265603,47.0598171 L17.5053914,46.9987543 L3.09100017,42.1969446 C1.9076185,41.8027293 0.631163453,42.4498559 0.239958028,43.6423423 C-0.151247397,44.8348288 0.490938334,46.1211046 1.67432001,46.5153199 L1.67432001,46.5153199 Z M19.053801,66.3459419 L19.053801,50.586079 L19.053801,20.1557564 L19.053801,2.36838655 C19.053801,1.11242893 18.0434199,0.0942741053 16.7970516,0.0942741053 C15.5506833,0.0942741053 14.5403022,1.11242893 14.5403022,2.36838655 L14.5403022,20.1557564 L14.5403022,50.586079 L14.5403022,66.3459419 C14.5403022,67.6018995 15.5506833,68.6200543 16.7970516,68.6200543 C18.0434199,68.6200543 19.053801,67.6018995 19.053801,66.3459419 L19.053801,66.3459419 Z"></path>
                        <path d="M17.6808699,18.1222935 L3.09484197,10.5242269 L1.02220068,14.5645425 L15.6082286,22.1626091 L17.6808699,18.1222935 L17.6808699,18.1222935 Z"></path>
                        <path d="M15.6082286,47.4297003 L1.02220068,55.0277669 L3.09484197,59.0680825 L17.6808699,51.4700159 L15.6082286,47.4297003 L15.6082286,47.4297003 Z"></path>
                    </g>
                </g>
            </g>
        </g>
    </g>
</svg>