<?xml version="1.0" encoding="UTF-8" standalone="no"?>
<svg width="204px" height="204px" viewBox="0 0 204 204" version="1.1" xmlns="http://www.w3.org/2000/svg" xmlns:xlink="http://www.w3.org/1999/xlink" xmlns:sketch="http://www.bohemiancoding.com/sketch/ns">
    <!-- Generator: Sketch 3.4.2 (15857) - http://www.bohemiancoding.com/sketch -->
    <title>icon 2</title>
    <desc>Created with Sketch.</desc>
    <defs></defs>
    <g id="Welcome" stroke="none" stroke-width="1" fill="none" fill-rule="evenodd" sketch:type="MSPage">
        <g id="icon-2" sketch:type="MSArtboardGroup" fill="#F6A623">
            <g id="Group-Copy-2" sketch:type="MSLayerGroup" transform="translate(40.000000, 39.000000)">
                <path d="M61.8735809,125.969864 C96.0496057,125.969864 123.747162,97.766355 123.747162,62.9849321 C123.747162,28.2035092 96.0496057,0 61.8735809,0 C27.697556,0 0,28.2035092 0,62.9849321 C0,97.766355 27.697556,125.969864 61.8735809,125.969864 L61.8735809,125.969864 Z M61.8735809,121.289621 C30.2648917,121.289621 4.6334002,95.1899173 4.6334002,62.9849321 C4.6334002,30.7799469 30.2648917,4.68024314 61.8735809,4.68024314 C93.48227,4.68024314 119.113762,30.7799469 119.113762,62.9849321 C119.113762,95.1899173 93.48227,121.289621 61.8735809,121.289621 L61.8735809,121.289621 Z" id="Shape-Copy-2" sketch:type="MSShapeGroup"></path>
                <path d="M57.4262363,92.5734971 L43.173201,82.6985949 L44.136353,84.5456398 L44.136353,41.2841635 L43.173201,43.1312083 L57.4262363,33.2563061 L54.6859248,33.0715284 L89.2241153,64.5771687 L89.2241153,61.2526345 L54.6859248,92.7582748 L57.4262363,92.5734971 L57.4262363,92.5734971 Z M54.9178428,96.2675868 C55.7636538,96.8535883 56.896958,96.7771702 57.6581543,96.0828091 L92.1963448,64.5771687 C93.1713234,63.687796 93.1713234,62.1420073 92.1963448,61.2526345 L57.6581542,29.7469942 C56.8969579,29.052633 55.7636537,28.9762149 54.9178427,29.5622165 L40.6648075,39.4371186 C40.0619633,39.854786 39.7016555,40.5457513 39.7016555,41.2841635 L39.7016555,84.5456398 C39.7016555,85.2840519 40.0619633,85.9750172 40.6648075,86.3926846 L54.9178428,96.2675868 L54.9178428,96.2675868 Z M41.3133364,74.8894286 L55.4760662,79.6187149 C55.9834361,79.7881383 56.5343113,79.7667815 57.0273325,79.5585743 L91.5452831,64.9813377 C93.3613572,64.2143935 93.3613572,61.6154096 91.5452831,60.8484654 L57.0273325,46.2712289 C56.4479235,46.0265393 55.7929686,46.0415061 55.2251071,46.3124125 L41.0623773,53.0689453 C39.955056,53.5972088 39.4813508,54.9321873 40.004327,56.0507034 C40.5273033,57.1692195 41.8489205,57.6477138 42.9562417,57.1194504 L57.1189716,50.3629176 L55.3167462,50.4041012 L89.8346969,64.9813377 L89.8346969,60.8484654 L55.3167462,75.425702 L56.8680125,75.3655615 L42.7052827,70.6362752 C41.5425617,70.2480139 40.2883923,70.8853667 39.904017,72.0598426 C39.5196416,73.2343185 40.1506154,74.5011673 41.3133364,74.8894286 L41.3133364,74.8894286 Z M58.3893883,94.4205419 L58.3893883,78.8987056 L58.3893883,48.9279825 L58.3893883,31.4092613 C58.3893883,30.1722728 57.3966475,29.1694956 56.1720396,29.1694956 C54.9474317,29.1694956 53.9546909,30.1722728 53.9546909,31.4092613 L53.9546909,48.9279825 L53.9546909,78.8987056 L53.9546909,94.4205419 C53.9546909,95.6575304 54.9474317,96.6603077 56.1720396,96.6603077 C57.3966475,96.6603077 58.3893883,95.6575304 58.3893883,94.4205419 L58.3893883,94.4205419 Z" id="Shape" sketch:type="MSShapeGroup"></path>
                <path d="M57.0404273,46.9252317 L42.7090574,39.4419212 L40.6726024,43.4212146 L55.0039723,50.904525 L57.0404273,46.9252317 L57.0404273,46.9252317 Z" id="Shape" sketch:type="MSShapeGroup"></path>
                <path d="M55.0039723,75.7899988 L40.6726024,83.2733092 L42.7090574,87.2526026 L57.0404273,79.7692921 L55.0039723,75.7899988 L55.0039723,75.7899988 Z" id="Shape" sketch:type="MSShapeGroup"></path>
            </g>
        </g>
    </g>
</svg>