<?xml version="1.0" encoding="UTF-8" standalone="no"?>
<svg width="50px" height="30px" viewBox="0 0 50 30" version="1.1" xmlns="http://www.w3.org/2000/svg" xmlns:xlink="http://www.w3.org/1999/xlink" xmlns:sketch="http://www.bohemiancoding.com/sketch/ns">
    <!-- Generator: Sketch 3.4.2 (15857) - http://www.bohemiancoding.com/sketch -->
    <title>ion logo</title>
    <desc>Created with Sketch.</desc>
    <defs></defs>
    <g id="Welcome" stroke="none" stroke-width="1" fill="none" fill-rule="evenodd" sketch:type="MSPage">
        <g id="ion-logo" sketch:type="MSArtboardGroup" fill="#FFFFFF">
            <g id="Group-Copy" sketch:type="MSLayerGroup" transform="translate(3.000000, 2.000000)">
                <path d="M0.0366056572,25.9051253 L3.84359401,25.9051253 L3.84359401,0.122395543 L0.0366056572,0.122395543 L0.0366056572,25.9051253 L0.0366056572,25.9051253 Z" id="Shape" sketch:type="MSShapeGroup"></path>
                <path d="M40.3028286,0.122395543 L40.3028286,20.1836769 C34.8857038,13.5455655 29.4670416,6.90542618 24.0499168,0.26724234 C21.3684792,-0.457498607 17.5240067,0.806579387 16.2895175,1.42601671 C10.8591414,4.15080223 6.52810649,10.9767075 9.99334443,18.7352089 C13.3131115,26.1680223 23.4919002,28.3999666 30.5657238,22.8633426 C31.9324326,21.793649 33.4310682,20.2545794 34.0066556,18.4455153 C34.0554875,18.4213983 34.1042463,18.3972089 34.1530782,18.3730919 C36.2027754,20.8835042 38.2531314,23.3947131 40.3028286,25.9051253 L43.9633943,25.9051253 L43.9633943,0.122395543 L40.3028286,0.122395543 L40.3028286,0.122395543 Z M20.2429285,22.3563788 C15.2390083,21.3159443 10.6760399,15.6684401 13.2878536,9.39259053 C14.6796007,6.04851253 17.4033544,4.39291365 20.0232945,3.81598886 L20.2429285,3.81598886 L20.2429285,22.3563788 L20.2429285,22.3563788 Z M23.9034942,22.2784513 C23.9278735,16.8472758 23.8791148,11.4198663 23.9034942,5.98869081 C26.3192479,8.88533705 28.7356606,11.7828524 31.1514143,14.6794986 C31.0982629,18.1679164 27.2683594,22.0572702 23.9034942,22.2784513 L23.9034942,22.2784513 Z" id="Shape" sketch:type="MSShapeGroup"></path>
            </g>
        </g>
    </g>
</svg>