<?xml version="1.0" encoding="UTF-8" standalone="no"?>
<svg width="164px" height="164px" viewBox="0 0 164 164" version="1.1" xmlns="http://www.w3.org/2000/svg" xmlns:xlink="http://www.w3.org/1999/xlink" xmlns:sketch="http://www.bohemiancoding.com/sketch/ns">
    <!-- Generator: Sketch 3.4.2 (15857) - http://www.bohemiancoding.com/sketch -->
    <title>Subscribe icon</title>
    <desc>Created with Sketch.</desc>
    <defs></defs>
    <g id="Welcome" stroke="none" stroke-width="1" fill="none" fill-rule="evenodd" sketch:type="MSPage">
        <g id="Subscribe-icon" sketch:type="MSArtboardGroup">
            <g id="Group" sketch:type="MSLayerGroup" transform="translate(2.000000, 6.000000)">
                <g transform="translate(17.112299, 9.411765)" stroke="#FFFFFF" stroke-width="5" sketch:type="MSShapeGroup" stroke-linecap="round" stroke-linejoin="round">
                    <path d="M103.133356,62.459893 L124.064171,62.459893 L124.064171,141.176471 L0,141.176471 L0,62.459893 L21.3268717,62.459893" id="Rectangle-48"></path>
                    <path d="M0.22423822,62.2356548 L62.317196,0.142697049 L124.410154,62.2356548" id="Rectangle-48"></path>
                    <path d="M0.554812834,140.128676 L50.9408422,108.011364" id="Path-244"></path>
                    <path d="M73.2820856,140.128676 L123.668115,108.011364" id="Path-244-Copy" transform="translate(98.475100, 124.070020) scale(-1, 1) translate(-98.475100, -124.070020) "></path>
                </g>
                <g id="Diamant" transform="translate(79.584202, 82.139674) rotate(-270.000000) translate(-79.584202, -82.139674) translate(53.084202, 48.639674)" fill="#FFFFFF" sketch:type="MSShapeGroup">
                    <path d="M17.5608161,62.6416418 L3.46603618,52.8997401 L4.41849399,54.7219079 L4.41849399,12.0431007 L3.46603618,13.8652685 L17.5608161,4.12336687 L14.850931,3.94107785 L49.0056345,35.0223831 L49.0056345,31.7426255 L14.8509311,62.8239308 L17.5608161,62.6416418 L17.5608161,62.6416418 Z M15.080274,66.2859774 C15.9166937,66.8640864 17.0374145,66.7886975 17.790159,66.1036884 L51.9448625,35.0223831 C52.9090157,34.1449889 52.9090157,32.6200197 51.9448625,31.7426255 L17.790159,0.661320234 C17.0374144,-0.0236888834 15.9166936,-0.0990777263 15.0802739,0.479031215 L0.985494043,10.2209329 C0.389343416,10.6329748 0.0330362327,11.3146339 0.0330362327,12.0431007 L0.0330362327,54.7219079 C0.0330362327,55.4503748 0.389343418,56.1320338 0.985494046,56.5440758 L15.080274,66.2859774 L15.080274,66.2859774 Z M1.62682212,45.1957519 L15.6322993,49.8613416 C16.1340357,50.0284831 16.6787944,50.007414 17.1663414,49.802011 L51.3010298,35.4211085 C53.0969395,34.6644939 53.0969395,32.1005146 51.3010298,31.3439 L17.1663414,16.9629976 C16.5933658,16.7216037 15.9456831,16.7363688 15.3841267,17.0036266 L1.37864952,23.6691587 C0.28362317,24.1903072 -0.184822379,25.5073056 0.332347097,26.6107569 C0.849516572,27.7142082 2.15645951,28.1862578 3.25148586,27.6651094 L17.256963,20.9995772 L15.4747483,21.0402061 L49.6094366,35.4211085 L49.6094366,31.3439 L15.4747483,45.7248025 L17.0087904,45.6654719 L3.00331325,40.9998822 C1.8535023,40.6168502 0.613258317,41.2456188 0.233150788,42.4042763 C-0.146956741,43.5629337 0.477011169,44.8127199 1.62682212,45.1957519 L1.62682212,45.1957519 Z M18.513274,64.4638096 L18.513274,49.1510298 L18.513274,19.5839687 L18.513274,2.30119907 C18.513274,1.08087103 17.5315558,0.091599694 16.3205451,0.091599694 C15.1095344,0.091599694 14.1278162,1.08087103 14.1278162,2.30119907 L14.1278162,19.5839687 L14.1278162,49.1510298 L14.1278162,64.4638096 C14.1278162,65.6841376 15.1095344,66.673409 16.3205451,66.673409 C17.5315558,66.673409 18.513274,65.6841376 18.513274,64.4638096 L18.513274,64.4638096 Z" id="Shape"></path>
                    <path d="M17.1792908,17.6081919 L3.00704607,10.2256708 L0.993202424,14.1513689 L15.1654472,21.53389 L17.1792908,17.6081919 L17.1792908,17.6081919 Z" id="Shape"></path>
                    <path d="M15.1654472,46.0841927 L0.993202424,53.4667138 L3.00704607,57.3924119 L17.1792908,50.0098908 L15.1654472,46.0841927 L15.1654472,46.0841927 Z" id="Shape"></path>
                </g>
                <g id="Path-246-+-Path-247-+-Path-248" stroke="#FFFFFF" stroke-width="5" sketch:type="MSShapeGroup" stroke-linecap="round" stroke-linejoin="round">
                    <path d="M35.2874324,35.3158415 L19.3026856,18.2231402" id="Path-246"></path>
                    <path d="M0.762032086,47.3579545 L16.1781417,52.8559492" id="Path-247"></path>
                    <path d="M48.7550134,0.442847594 L55.6149733,16.1447193" id="Path-248"></path>
                </g>
                <g id="Path-246-+-Path-247-+-Path-248-Copy" transform="translate(132.000000, 26.500000) scale(-1, 1) translate(-132.000000, -26.500000) translate(104.000000, 0.000000)" stroke="#FFFFFF" stroke-width="5" sketch:type="MSShapeGroup" stroke-linecap="round" stroke-linejoin="round">
                    <path d="M35.2874324,35.3158415 L19.3026856,18.2231402" id="Path-246"></path>
                    <path d="M0.762032086,47.3579545 L16.1781417,52.8559492" id="Path-247"></path>
                    <path d="M48.7550134,0.442847594 L55.6149733,16.1447193" id="Path-248"></path>
                </g>
            </g>
        </g>
    </g>
</svg>