<?xml version="1.0" encoding="UTF-8" standalone="no"?>
<svg width="50px" height="50px" viewBox="0 0 50 50" version="1.1" xmlns="http://www.w3.org/2000/svg" xmlns:xlink="http://www.w3.org/1999/xlink" xmlns:sketch="http://www.bohemiancoding.com/sketch/ns">
    <!-- Generator: Sketch 3.4.2 (15857) - http://www.bohemiancoding.com/sketch -->
    <title>twitter</title>
    <desc>Created with Sketch.</desc>
    <defs></defs>
    <g id="Welcome" stroke="none" stroke-width="1" fill="none" fill-rule="evenodd" sketch:type="MSPage">
        <g id="twitter" sketch:type="MSArtboardGroup" fill="#FFFFFF">
            <g id="Twitter-Copy" sketch:type="MSLayerGroup" transform="translate(7.000000, 11.000000)">
                <path d="M17.2206918,7.48421867 L17.2958431,8.6993529 L16.043321,8.55056096 C11.4841405,7.98019183 7.50112024,6.04589652 4.11931056,2.79727235 L2.46598139,1.18535959 L2.04012387,2.37569517 C1.13830796,5.02915155 1.71446813,7.83139988 3.59325128,9.71609787 C4.59526896,10.7576415 4.36981499,10.9064334 2.64133448,10.286467 C2.04012387,10.0880777 1.51406459,9.93928579 1.46396371,10.0136818 C1.28861061,10.1872724 1.88982122,12.4439502 2.36577962,13.3367019 C3.01709111,14.5766348 4.34476454,15.791769 5.79769018,16.5109301 L7.02516184,17.0812992 L5.5722362,17.1060979 C4.16941145,17.1060979 4.11931056,17.1308966 4.26961322,17.6516684 C4.77062206,19.2635811 6.74960698,20.9746885 8.95404588,21.7186482 L10.5071733,22.2394201 L9.15444942,23.0329771 C7.15041405,24.1737154 4.7956725,24.8184805 2.44093095,24.8680778 C1.31366105,24.8928764 0.386794698,24.9920711 0.386794698,25.066467 C0.386794698,25.3144536 3.44294863,26.7031785 5.22153002,27.2487489 C10.5572742,28.8606617 16.895036,28.1662993 21.65462,25.4136483 C25.0364297,23.4545543 28.4182394,19.561165 29.9964172,15.791769 C30.8481322,13.7830778 31.6998473,10.1128764 31.6998473,8.35217169 C31.6998473,7.21143344 31.7749986,7.06264149 33.1778234,5.69871531 C34.0044879,4.90515826 34.7810516,4.03720524 34.9313543,3.78921866 C35.1818587,3.31804416 35.1568083,3.31804416 33.8792357,3.73962134 C31.7499482,4.48358108 31.4493429,4.38438645 32.5014614,3.26844685 C33.2780251,2.4748898 34.2048915,1.03656765 34.2048915,0.614990463 C34.2048915,0.540594489 33.8291348,0.664587778 33.4032773,0.887775699 C32.9523694,1.13576228 31.9503517,1.50774214 31.1988384,1.73093006 L29.8461146,2.15250725 L28.6186429,1.33415154 C27.942281,0.887775699 26.9903642,0.391802543 26.4893553,0.243010596 C25.2117828,-0.104170613 23.2578483,-0.0545732975 22.105528,0.342205227 C18.9742227,1.45814483 16.9952378,4.33478913 17.2206918,7.48421867 Z" id="Path" sketch:type="MSShapeGroup"></path>
            </g>
        </g>
    </g>
</svg>